<?xml version="1.0" standalone="no"?>
<!DOCTYPE svg PUBLIC "-//W3C//DTD SVG 20010904//EN"
 "http://www.w3.org/TR/2001/REC-SVG-20010904/DTD/svg10.dtd">
<svg version="1.0" xmlns="http://www.w3.org/2000/svg"
 width="400.000000pt" height="396.000000pt" viewBox="0 0 400.000000 396.000000"
 preserveAspectRatio="xMidYMid meet">
<metadata>
Created by potrace 1.16, written by Peter Selinger 2001-2019
</metadata>
<g transform="translate(0.000000,396.000000) scale(0.100000,-0.100000)"
fill="#FFFFFF" stroke="none">
<path d="M1850 3829 c-584 -50 -1112 -361 -1435 -844 -145 -218 -248 -472
-289 -715 -66 -389 -17 -724 156 -1077 213 -434 608 -801 1035 -961 210 -79
342 -108 560 -122 397 -26 741 51 1070 240 273 158 517 395 683 665 187 304
289 716 260 1055 -23 270 -73 462 -185 696 -282 593 -851 992 -1517 1064 -109
11 -198 11 -338 -1z m420 -89 c267 -43 519 -139 727 -277 433 -287 710 -720
804 -1253 20 -115 17 -412 -5 -540 -30 -173 -138 -481 -168 -480 -7 1 -42 28
-78 62 -36 33 -92 81 -125 106 -53 41 -253 217 -356 313 -84 79 -72 75 -131
47 -29 -14 -71 -33 -93 -42 l-39 -18 -66 69 c-36 37 -110 115 -166 173 -107
111 -515 499 -542 514 -13 7 -44 -19 -149 -129 -74 -76 -172 -189 -220 -251
-64 -85 -95 -118 -124 -131 -29 -12 -70 -55 -159 -163 -65 -81 -126 -152 -134
-159 -12 -10 -31 -6 -98 24 -46 19 -109 51 -142 71 -32 19 -63 33 -67 32 -24
-8 -282 -252 -407 -385 -79 -84 -148 -150 -154 -147 -26 16 -128 264 -147 359
-5 22 -19 85 -32 140 -30 131 -32 419 -5 560 31 159 76 311 125 417 11 26 21
49 21 51 0 3 26 51 58 108 196 350 514 638 877 793 153 66 328 116 470 135 44
6 94 13 110 15 51 7 346 -2 415 -14z m-139 -1497 c48 -49 102 -114 120 -145
34 -58 49 -71 49 -43 0 30 29 14 83 -45 l56 -60 -6 -69 c-6 -67 -5 -70 38
-145 43 -75 52 -83 77 -68 10 7 10 15 1 38 -22 55 -46 165 -37 170 8 5 57 -44
167 -166 45 -50 51 -75 21 -85 -37 -12 -22 -27 20 -20 39 7 46 1 41 -29 -1 -5
7 -45 19 -88 12 -43 23 -102 25 -129 4 -62 19 -80 134 -157 72 -48 87 -64 106
-107 29 -65 48 -81 78 -68 16 7 32 7 54 -1 35 -12 211 -158 220 -183 7 -19
-147 -176 -272 -277 -473 -382 -1121 -488 -1730 -284 -109 36 -318 145 -426
222 -110 78 -299 249 -299 270 0 6 22 19 48 29 27 9 75 35 108 57 32 22 63 40
67 40 5 0 27 15 50 34 23 18 53 37 67 41 14 4 54 23 90 42 36 19 94 41 129 48
40 9 77 24 100 43 20 16 50 36 67 45 64 33 135 100 184 172 48 71 51 87 12 65
-26 -15 -126 -49 -222 -76 -73 -20 -161 -50 -235 -79 -16 -7 -18 -6 -7 6 6 7
12 21 12 31 0 32 31 68 108 126 42 32 94 71 117 88 41 31 90 97 136 184 13 25
27 47 32 48 4 2 7 12 7 22 0 10 4 21 8 24 4 2 9 19 10 38 4 50 24 62 22 13 -3
-75 -1 -85 20 -85 22 0 26 -22 11 -62 -4 -13 -11 -40 -15 -61 l-7 -38 37 20
c27 15 41 17 50 10 19 -16 45 2 91 63 45 58 92 150 118 229 10 28 28 70 41 92
13 23 24 54 24 69 0 39 22 128 32 128 4 0 8 -16 8 -35 0 -29 8 -43 40 -74 22
-21 40 -45 40 -53 0 -9 -11 -40 -24 -69 -13 -30 -27 -72 -30 -94 -6 -37 -5
-41 15 -42 12 -1 40 -15 63 -30 22 -15 53 -33 68 -40 34 -15 56 -50 56 -87 0
-22 -15 -44 -54 -85 -50 -51 -54 -60 -54 -103 0 -52 -7 -60 -65 -68 -33 -4
-43 -11 -57 -40 -19 -39 -23 -81 -9 -108 5 -9 21 -46 37 -82 15 -36 46 -92 69
-125 40 -59 42 -61 135 -93 126 -44 209 -66 217 -58 4 4 -16 30 -44 59 -83 83
-140 154 -130 163 3 3 13 -6 24 -21 49 -70 40 -66 163 -74 63 -5 118 -6 122
-4 5 2 1 18 -8 34 -27 53 -15 63 36 29 25 -16 55 -30 67 -30 12 0 34 -5 49
-10 57 -22 47 7 -27 80 -97 95 -164 144 -219 162 -39 13 -45 19 -48 45 -2 24
-21 48 -83 106 -79 73 -96 106 -65 124 12 7 12 15 0 63 -18 71 -18 80 6 80 12
0 32 -17 51 -42 37 -52 174 -176 224 -202 28 -15 38 -17 48 -7 9 9 8 18 -5 39
-9 15 -29 49 -44 77 -15 27 -54 79 -88 115 -34 36 -74 82 -90 103 -41 56 -68
79 -80 67 -5 -5 -18 -10 -28 -10 -14 0 -18 -8 -18 -31 0 -30 -1 -31 -34 -26
-19 3 -57 23 -85 43 -58 44 -63 65 -34 146 19 52 10 87 -33 133 -17 18 -24 38
-24 64 0 21 -3 66 -6 100 -4 35 -3 61 2 61 5 0 48 -39 95 -87z m899 -603 c0
-10 276 -261 333 -304 73 -54 227 -208 227 -227 0 -11 -6 -19 -14 -19 -15 0
-177 91 -215 121 -13 11 -26 17 -28 15 -13 -13 17 -51 100 -126 50 -46 93 -86
95 -89 1 -3 -9 -19 -24 -34 -24 -27 -26 -27 -53 -11 -15 9 -83 69 -150 134
-101 96 -129 119 -160 124 -21 3 -45 14 -55 25 -15 16 -16 24 -6 59 14 46 1
73 -54 115 l-32 25 2 104 c2 56 3 104 4 105 1 7 30 -10 30 -17z m-2075 -87 c3
-32 8 -72 11 -89 4 -26 -2 -37 -33 -68 -45 -44 -32 -47 23 -6 21 16 48 30 58
30 24 0 96 -48 96 -65 0 -26 -67 -144 -96 -169 -36 -30 -44 -32 -44 -12 0 7
-6 19 -14 25 -26 22 -86 -15 -181 -110 -164 -165 -190 -189 -206 -189 -14 0
-81 84 -127 161 l-22 36 66 74 c87 97 117 115 94 54 -6 -15 -8 -30 -6 -32 9
-9 92 55 146 114 61 65 171 204 182 231 4 9 12 29 18 45 15 43 28 32 35 -30z
m195 -18 c20 -24 6 -28 -15 -5 -10 11 -13 20 -8 20 6 0 16 -7 23 -15z m1144
-186 c24 -28 34 -59 20 -59 -13 0 -62 41 -78 65 -37 56 10 52 58 -6z"/>
<path d="M1927 3303 c-4 -3 -7 -62 -7 -129 l0 -123 -127 -3 -128 -3 -3 -97 -3
-98 130 0 130 0 3 -127 3 -128 98 -3 97 -3 0 115 c0 63 3 121 6 130 5 13 26
16 130 16 l124 0 0 100 0 99 -127 3 -128 3 -3 128 -3 127 -93 0 c-51 0 -96 -3
-99 -7z"/>
<path d="M1336 1012 c-22 -5 -61 -28 -179 -106 l-78 -51 45 -3 c51 -3 147 38
211 91 47 39 48 80 1 69z"/>
</g>
</svg>
