<?xml version="1.0" encoding="UTF-8" standalone="no"?>
<!-- Created with Inkscape (http://www.inkscape.org/) -->

<svg
   version="1.1"
   id="svg1"
   width="822.7168"
   height="822.71875"
   viewBox="0 0 822.7168 822.71875"
   sodipodi:docname="logo-gold.svg"
   inkscape:version="1.4.4 (dcaf3e7d9e, 2026-05-05)"
   xmlns:inkscape="http://www.inkscape.org/namespaces/inkscape"
   xmlns:sodipodi="http://sodipodi.sourceforge.net/DTD/sodipodi-0.dtd"
   xmlns="http://www.w3.org/2000/svg"
   xmlns:svg="http://www.w3.org/2000/svg">
  <defs
     id="defs1" />
  <sodipodi:namedview
     id="namedview1"
     pagecolor="#ffffff"
     bordercolor="#000000"
     borderopacity="0.25"
     inkscape:showpageshadow="2"
     inkscape:pageopacity="0.0"
     inkscape:pagecheckerboard="0"
     inkscape:deskcolor="#d1d1d1"
     inkscape:zoom="0.70710678"
     inkscape:cx="426.38539"
     inkscape:cy="294.15642"
     inkscape:window-width="1920"
     inkscape:window-height="1095"
     inkscape:window-x="0"
     inkscape:window-y="0"
     inkscape:window-maximized="1"
     inkscape:current-layer="g1" />
  <g
     inkscape:groupmode="layer"
     inkscape:label="Image"
     id="g1"
     transform="translate(-87.007812,269.91016)">
    <path
       style="fill:#b8860b;fill-opacity:0;stroke:none;stroke-width:1.8;stroke-dasharray:none;stroke-opacity:1"
       d="m 149.55308,335.16861 -39.24442,-83.08504 c 0,0 -6.36396,-45.25484 -6.71752,-46.66905 -0.35355,-1.41421 -5.303297,-57.6292 -5.303297,-57.6292 0,0 4.242637,-61.518293 4.242637,-63.639613 0,-2.12132 10.60661,-37.123106 10.60661,-37.123106 l 14.14213,-50.5581349 c 0,0 27.22361,-62.9325041 26.51651,-60.8111831 -0.70711,2.12132 45.25483,-64.346713 45.25483,-64.346713 l 52.67945,-45.96195 87.32769,-55.86143 c 0,0 100.05561,-24.39518 101.82338,-24.74874 1.76777,-0.35355 71.77134,-5.65685 71.77134,-5.65685 l 83.79215,10.96015 74.59977,27.22361 69.29646,43.84062 76.36753,72.832 50.55814,91.570331 31.46625,102.17693 1.06066,61.518289 L 881.05505,266.2257 875.375,273.125 857.5,266.75 c 0,0 -12.875,-10.875 -14.5,-12.5 -1.625,-1.625 -14.125,-11.125 -14.75,-11.875 -0.625,-0.75 -18.625,-7.25 -19.125,-7.375 -0.5,-0.125 -22.625,-10.25 -24.875,-12.25 -2.25,-2 -13.75,-7.875 -17,-9.125 -3.25,-1.25 -10.75,-1.25 -14.375,-3.125 -3.625,-1.875 -5.25,-2.625 -10.875,-5.125 -5.625,-2.5 -5.125,-2 -9.875,-3.75 -4.75,-1.75 -7.875,-2.25 -11.375,-3.5 -3.5,-1.25 -4.125,-1.875 -9.5,-2.75 -5.375,-0.875 -12.25,-3 -14.125,-3.75 -1.875,-0.75 -8.5,-5 -13.75,-7.5 -5.25,-2.5 -16.625,-9.125 -18.5,-10.5 -1.875,-1.375 -2.75,-0.375 -6.375,-3.75 -3.625,-3.375 -5.5,-4.125 -10.75,-8.375 -5.25,-4.25 -5.25,-4 -9.5,-6.75 -4.25,-2.75 -4.125,-3 -6.75,-4 -2.625,-1 -9.5,-6 -11.125,-6.75 -1.625,-0.75 -12.75,-2.125 -17.625,-2.625 -4.875,-0.5 -4.25,1.75 -10,-1.75 -5.75,-3.5 -3.375,-3.625 -11.5,-6.625 -8.125,-3 -6.625,-3.625 -13.25,-4.875 -6.625,-1.25 -57.875,-22.375 -57.875,-22.375 0,0 -4.875,-2.25 -6.125,-2.375 -1.25,-0.125 -12,0.625 -15.125,1 -3.125,0.375 -6.625,0.75 -13,2.5 -6.375,1.75 -19.625,5.875 -23.625,6.25 -4,0.375 -9,3.625 -12.5,5.875 -3.5,2.25 -10.75,8.25 -11.125,8.75 -0.375,0.5 -10.625,8.5 -11.5,9.75 -0.875,1.25 -3.125,3.875 -6.125,7.5 -3,3.625 -5.375,6.125 -9,9.5 -3.625,3.375 -4.5,4.375 -7.375,7 -2.875,2.625 -2.375,2.625 -7.375,6.875 -5,4.25 -7.375,6.25 -10.875,8.875 -3.5,2.625 -11.375,7.25 -12.625,8.625 -1.25,1.375 -2.625,2.375 -3.25,4.25 -0.625,1.875 -4.625,9 -5.125,9.25 -0.5,0.25 -0.5,3.75 -7.375,7.875 -6.875,4.125 -21.25,9.875 -22.5,10.25 -1.25,0.375 -13.875,2.25 -16.75,2.875 -2.875,0.625 -6.5,0.75 -10.75,3 -4.25,2.25 -5.25,1.125 -10.125,8.25 -4.875,7.125 -7,8.5 -6.75,15.125 0.25,6.625 2.25,0.625 0.25,8.125 -2,7.5 -5.25,12.875 -6.625,13.625 -1.375,0.75 -9.625,3.75 -11.625,6 -2,2.25 -11.375,9.625 -13.125,11.375 -1.75,1.75 -2.875,1.875 -8.25,6.375 -5.375,4.5 -1.125,4.75 -13.875,10 -12.75,5.25 -7.625,5.125 -19.125,8 -11.5,2.875 -39.75,15.875 -39.75,15.875 z"
       id="path36" />
    <path
       id="path3"
       style="fill:#b8860b;fill-opacity:1;stroke-width:0.143758"
       d="M 498.36719,-269.91016 A 411.35867,411.35867 0 0 0 87.007812,141.44922 411.35867,411.35867 0 0 0 498.36719,552.80859 411.35867,411.35867 0 0 0 909.72461,141.44922 411.35867,411.35867 0 0 0 498.36719,-269.91016 Z m 0,16.36719 A 394.99127,394.99127 0 0 1 893.35742,141.44922 394.99127,394.99127 0 0 1 498.36719,536.43945 394.99127,394.99127 0 0 1 103.375,141.44922 394.99127,394.99127 0 0 1 498.36719,-253.54297 Z" />
    <path
       id="rect7-3"
       style="fill:#b8860b;fill-opacity:1;stroke-width:0.144336"
       d="m 468.36621,-190.50819 v 70 h -70 v 60.000006 h 70 V 9.4918158 h 60 V -60.508184 h 70 v -60.000006 h -70 v -70 z" />
    <path
       style="fill:#000000;fill-opacity:1;stroke-width:0.133333"
       d="m 506.15172,102.64341 c -48.86847,7.26158 -48.86847,7.26158 -48.86847,7.26158"
       id="path8" />
    <path
       id="path9"
       style="fill:#b8860b;fill-opacity:1;stroke-width:0.133333"
       d="m 409.91797,148.89062 c -3.21987,0.092 -6.43355,0.92562 -9.2793,2.98633 -11.38302,8.24288 -7.85039,19.62512 -12.95312,20.41016 -5.10273,0.78503 12.56,23.55284 9.02734,36.89844 -3.53266,13.34561 9.8125,16.09179 9.8125,16.09179 0,0 2.41534,-4.84839 11.54297,-1.58203 4.86463,1.74083 2.98047,3.54492 2.98047,3.54492 0,0 -25.51298,50.24189 -33.75586,48.2793 -8.24287,-1.96259 -9.42035,25.51371 -12.16797,38.4668 -2.74763,12.95309 -23.1582,28.65432 -23.1582,28.65429 0.0279,0.0787 0.67378,2.8327 -31.00977,32.97071 -32.18646,30.61639 -25.12109,37.68164 -25.12109,37.68164 l -41.60742,41.60742 71.10351,54.72461 126.00781,32.75195 c 0,0 86.87475,-1.11028 113.24219,-2.49804 26.36744,-1.38776 13.87695,-11.65821 13.87695,-11.65821 l -0.0664,0.19922 c -1.46805,-1.78069 -27.04817,-32.72054 -33.51758,-34.33789 -6.66125,-1.66531 -18.59529,8.60489 -19.15039,4.16406 -0.55511,-4.44083 15.54297,-10.54687 15.54297,-10.54687 l -7.49414,-27.47852 c 0,0 -4.71886,-3.6083 -14.98828,2.77539 -10.26943,6.3837 -2.77539,6.10743 -2.77539,6.10743 0,0 -27.44362,19.73098 -21.89258,8.6289 5.55104,-11.10208 3.75541,-23.15034 -3.46094,-19.42383 -7.9415,4.10098 -1.43075,1.91247 -7.81445,6.63086 -6.38369,4.71838 -3.74751,16.37568 -7.07813,10.26953 -3.33063,-6.10614 0.63086,-12.06445 0.63086,-12.06445 0,0 3.92457,-4.31884 -3.92578,-7.45898 -7.85036,-3.14014 20.80487,-18.05512 21.98242,-20.80274 1.17756,-2.74763 -10.20642,-13.34654 -18.84179,-18.84179 -2.83349,-1.80313 -3.76533,-2.4653 -3.73829,-2.54102 l 0.002,-0.002 0.002,-0.002 h 0.002 0.002 c 0.24582,-0.0338 4.12304,2.15235 4.12304,2.15235 0,0 -0.7856,-35.71791 9.02735,-30.22266 9.81294,5.49525 1.96337,-30.61638 5.10351,-38.07422 3.14014,-7.45784 -7.45836,-18.84112 -16.09375,-14.52344 -8.63539,4.31771 -29.83073,32.57892 -34.14844,37.68165 -4.3177,5.10274 -5.88846,17.2708 -17.27148,25.51367 -11.38301,8.24288 -0.78516,0.78515 -0.78516,0.78515 0,0 -6.27972,23.1571 -9.02734,28.65235 -2.74763,5.49525 -8.92467,-6.69225 -14.41992,-12.1875 -5.49524,-5.49525 9.70898,-15.28711 9.70898,-15.28711 0,0 14.32081,-10.63897 4.90039,-12.60156 -9.42043,-1.96259 8.05267,-14.87579 7.66016,-19.97852 -0.39252,-5.10273 12.85682,-17.23069 14.11133,-24.74805 1.23334,-7.39048 12.97356,-19.99802 18.86133,-32.55859 5.88777,-12.56057 0.0601,-19.85407 0.55859,-25.7207 0.35306,-4.1551 15.95078,-23.84794 26.15625,-38.3711 10.20546,-14.52316 6.64919,-29.7205 11.35937,-41.10351 4.71022,-11.38302 -3.92509,-10.99065 -12.16796,-13.73828 -8.24288,-2.74762 -4.98772,-1.55396 -14.01563,3.15625 -9.02791,4.71022 -4.43425,10.58176 -8.75195,21.57226 -2.17571,5.53818 -2.85619,6.99094 -2.9961,7.06836 -10e-4,4.4e-4 -0.005,0.002 -0.006,0.002 h -0.002 c -4.1e-4,-2e-5 -0.003,-3e-5 -0.004,0 h -0.002 -0.002 l -0.002,-0.002 -0.002,-0.002 -0.002,-0.002 -0.002,-0.002 c -0.0497,-0.12215 0.27343,-1.17383 0.27343,-1.17383 0,0 -15.34148,11.38181 -16.39062,2.28711 -0.91156,-7.90207 15.21332,-32.5122 17.96094,-35.65234 2.74763,-3.14014 -26.29883,-31.40039 -26.29883,-31.40039 0,0 -9.71538,-6.40294 -19.375,-6.12696 z m 50.92383,92.24415 c 0.25803,0.001 0.51932,0.0239 0.79687,0.0586 1.11021,0.13877 0.7638,0.83171 -2.01172,2.56641 -2.77552,1.7347 -2.42946,0.90201 -4.02539,2.63671 -1.59592,1.7347 -0.41673,1.31866 -0.76367,3.53907 -0.34694,2.22042 -0.83203,4.4414 -0.83203,4.4414 0,0 -0.90209,0.2764 -7.77148,2.84375 -6.86941,2.56736 -0.48547,0.48671 -4.23243,3.88672 -1.30265,1.18204 -1.70812,1.59282 -1.66797,1.69531 5.7e-4,0.001 0.003,0.005 0.004,0.006 l 0.002,0.002 h 0.002 v 0.002 0.002 c 0.16159,0.12624 1.71795,-0.67883 1.9375,0.375 0.34694,1.66531 0.0697,0.83263 -0.41602,2.63672 -0.48572,1.8041 -1.38874,0.76294 -5.20508,1.73438 -1.95421,0.49744 -2.3986,0.43083 -2.47851,0.39648 0.0214,0.0352 0.0337,0.15882 -0.22657,0.50586 -0.83266,1.11021 0.20764,0.83264 0.69336,2.63672 0.48573,1.80409 0.7642,0.69353 0.0703,3.05273 -0.69388,2.35919 -0.48744,2.01098 -2.91602,4.30078 -2.42858,2.28981 -2.21934,0.97162 -5.3418,2.35938 -3.12246,1.38776 -0.83393,0.62553 -6.10742,9.02148 -2.03964,3.24735 -2.69289,4.12831 -2.83398,4.17188 -10e-4,2.4e-4 -0.003,-1.4e-4 -0.004,0 -9.5e-4,3e-5 -0.005,7e-5 -0.006,0 h -0.002 v -0.002 h -0.002 -0.002 l -0.002,-0.002 -0.002,-0.002 -0.002,-0.002 v -0.002 c -0.0396,-0.10316 0.25193,-0.75124 0.24414,-0.84179 v -0.002 l -0.002,-0.002 v -0.002 l -0.002,-0.002 v -0.002 h -0.002 -0.002 c -7.6e-4,2.1e-4 -0.005,0.002 -0.006,0.002 -0.0453,0.0263 -0.20212,0.25114 -0.5664,0.84961 -1.94286,3.19184 -1.52688,1.80517 -7.35547,5.06641 -5.82859,3.26124 0.0705,-1.87355 -0.20703,-3.81641 -0.27755,-1.94286 3.81527,-4.16251 4.02343,-4.92578 0.20817,-0.76327 0.27764,-0.90364 1.17969,-4.37304 0.90204,-3.4694 0.5553,-1.04029 1.04102,-2.01172 0.48571,-0.97144 0.27806,-0.27693 0.625,-0.83203 0.34694,-0.5551 0.2776,-0.4161 5.13476,-2.91407 1.85938,-0.95625 2.42725,-1.29343 2.46289,-1.38672 2.6e-4,-9e-4 0.002,-0.005 0.002,-0.006 v -0.002 -0.002 -0.002 l -0.002,-0.002 v -0.002 l -0.002,-0.002 -0.002,-0.002 -0.002,-0.002 h -0.002 c -0.0969,-0.046 -0.78961,0.17113 -0.88086,0.0625 -7.1e-4,-0.001 -0.003,-0.005 -0.004,-0.006 -4.8e-4,-10e-4 -0.002,-0.005 -0.002,-0.006 -0.009,-0.0331 0.0166,-0.0889 0.0977,-0.16992 0.76327,-0.76327 0.62335,-0.62475 1.52539,-4.85742 0.90204,-4.23267 -0.13935,-0.76218 5.9668,-6.66016 6.10614,-5.89798 1.3884,-1.45841 8.25781,-7.42578 6.86941,-5.96737 0.27705,-1.0402 8.46484,-11.24023 8.18778,-10.20004 2.15207,-1.38708 9.02149,-6.10547 0.0221,0.0288 0.2399,0.22672 1.66601,-0.48633 1.1449,-0.57246 1.89777,-0.75521 2.67188,-0.75195 z m 3.35937,117.4375 c 1.30278,0.007 1.715,1.67696 1.42774,3.11328 -0.35356,1.76777 -0.70673,2.12045 -3.53516,8.13086 -2.82843,6.0104 2.82959,-2.47469 7.42578,-1.76758 4.5962,0.70711 -1.41553,1.76709 -6.01172,6.36328 -4.5962,4.5962 -1.41342,2.82932 -7.42383,9.90039 -6.0104,7.07106 -2.82755,1.41418 -8.13086,0.35352 -5.30329,-1.06066 1.0604,-2.82768 2.47461,-7.07032 1.41421,-4.24264 -2.2e-4,-1.06174 2.1211,-8.13281 2.12132,-7.07106 1.76698,-3.18107 7.42383,-8.48437 0,0 1.06032,-1.06044 3.18164,-2.1211 0.39774,-0.19887 0.74623,-0.28671 1.04687,-0.28515 z m -126.34179,3.52539 c 0.6869,0 1.57075,0.29498 1.47265,0.6875 -0.0981,0.39252 -0.51095,0.24847 -2.08103,2.11293 -1.57007,1.86446 1.35148,1.66388 1.35148,1.66388 0,0 -0.33888,-0.30977 1.81997,0.18087 2.15885,0.49065 -1.18873,1.73391 -2.26815,2.91146 -1.07943,1.17756 -1.17757,1.2751 -3.23828,2.55078 -2.06072,1.27568 -1.37443,1.17744 -3.92579,2.45312 -2.5514,1.27569 -0.39145,0.39193 -2.64843,2.55078 -2.25697,2.15885 -0.49094,1.07968 -1.96289,4.8086 -1.47194,3.72892 -1.07974,0.8833 -5.20118,4.02344 -4.12143,3.14014 -0.68638,0.58961 -2.94335,2.25781 -2.25698,1.6682 -4.471,0.65904 -2.0267,-1.8148 2.55423,-2.58511 0.39264,-0.98059 0.78516,-1.76562 0.39252,-0.78504 0.33842,-1.69894 5.34302,-5.13347 5.0046,-3.43453 -1.02845,-1.42929 3.25789,-6.00682 4.14759,-4.42935 2.40389,-0.8619 5.83842,-5.1796 3.43453,-4.31769 0.93177,-1.39433 5.24947,-5.90829 0,0 0.49082,-0.39257 1.17774,-0.39257 z m 31.14648,28.55664 c 0,0 0.832,0.8321 3.46875,3.33008 0.82398,0.78061 1.13227,1.0881 1.12109,1.16992 -2.4e-4,9.5e-4 3.4e-4,0.005 0,0.006 l -0.002,0.002 -0.002,0.002 -0.002,0.002 -0.002,0.002 -0.002,0.002 c -9.2e-4,4.9e-4 -0.005,0.003 -0.006,0.004 -0.18298,0.0614 -1.641,-0.70804 -2.63086,-0.0781 -1.52654,0.97144 -0.6956,0.55498 -2.91602,2.77539 -2.22041,2.22042 -0.13851,0.55577 -5.55078,6.93946 -1.04054,1.22731 -1.6694,2.01298 -2.0332,2.49804 0.21383,0.061 -0.34514,0.69329 -0.43164,0.69336 h -0.002 -0.002 V 408 h -0.002 l -0.002,-0.002 v -0.002 -0.002 l -0.002,-0.002 c -0.006,-0.0437 0.1041,-0.23385 0.44141,-0.6836 -0.1125,-0.0321 -0.43899,0.0944 -1.1582,0.55469 -3.4694,2.22041 -1.24803,-10e-4 -3.88477,-1.25 -2.63675,-1.24898 -0.001,-1.3875 -1.25,-5.55078 -1.24898,-4.16328 -0.69339,-2.0813 1.94336,-3.05273 2.63674,-0.97143 1.11027,0.13799 5.13477,-4.16407 4.02449,-4.30206 2.08166,-0.83221 7.77148,-3.1914 z"
       sodipodi:nodetypes="sssscscsscsccccsccssccscsssscsssccccccssssscsscssssssssssccsscccccccsscsssssscssccccccssscssssssssccccccccccccccccccsssssssssccccccccccsscssssscssssssssssscssssscssssssssssssscscsscccccccssscscccccccccssssscscs" />
    <path
       style="fill:#b8860b;fill-opacity:1;stroke-width:10;stroke-dasharray:none"
       d="m 167.21259,361.50891 c 14.52316,-16.87827 14.13064,-12.16805 20.01841,-18.84086 5.88776,-6.6728 -8.63539,-3.92518 -8.63539,-3.92518 0,0 -7.34393,0.95289 -7.78029,-5.97773 -0.28979,-4.60273 37.96675,-14.98812 47.77969,-20.48337 9.81295,-5.49525 11.81295,-15.93082 16.52316,-16.32334 4.71021,-0.39252 11.44002,-1.04261 11.44002,-1.04261 0,0 -3.98218,8.50045 -10.65498,12.03311 -6.67281,3.53266 -13.69389,7.11703 -0.7408,13.78983 12.95309,6.67281 9.37619,-0.83674 6.62856,12.90138 -2.74762,13.73813 -10.99049,13.34561 -12.95308,16.87827 -1.96259,3.53266 0,2.35511 3.14014,7.06532 3.14014,4.71021 11.38302,1.17755 -3.53266,11.77553 -14.91568,10.59798 -9.02791,3.14015 -20.01841,13.73813 -10.9905,10.59798 -14.13064,8.24287 -16.48575,11.38301 -2.35511,3.14015 -24.72862,-32.97149 -24.72862,-32.97149 z"
       id="path10"
       sodipodi:nodetypes="cscssscssssssssc" />
    <path
       style="fill:#b8860b;fill-opacity:1;stroke-width:0.133333"
       d="m 841.5582,338.35036 -10.59799,-6.28029 c 0,0 -3.53266,-7.06532 -7.45783,-10.9905 -3.92518,-3.92518 -6.28029,-8.24287 -9.02791,-12.16805 -2.74763,-3.92518 -7.06532,-5.88777 -5.10274,-8.63539 1.96259,-2.74763 7.85036,-5.10273 -5.10273,-6.6728 -12.95309,-1.57008 -8.63539,5.10273 -16.09323,-3.92518 -7.45784,-9.02791 -7.85035,-8.24288 -10.9905,-11.38302 -3.14014,-3.14014 -1.57007,-2.35511 -8.24287,-7.45784 -6.6728,-5.10273 -7.45784,-3.92518 -9.42043,-9.02791 -1.96259,-5.10273 -5.10273,-2.74762 -1.57007,-9.42042 3.53266,-6.67281 3.92518,-8.6354 5.49525,-14.13065 1.57007,-5.49525 5.10273,-7.06532 7.06532,-12.95308 1.96259,-5.88777 0.78504,-14.91568 3.53266,-9.02791 2.74763,5.88776 9.02791,7.85035 3.53266,14.13064 -5.49525,6.28028 -5.88777,2.3551 -7.85035,8.24287 -1.96259,5.88777 1.96258,5.88777 7.85035,8.24288 5.88777,2.3551 9.81295,5.10273 10.59798,9.02791 0.78504,3.92517 -1.17755,10.59798 3.53266,9.02791 4.71022,-1.57008 2.8296,-2.76844 3.26277,-7.86788 0.37738,-4.44269 -0.65112,-5.34009 -2.47773,-11.75802 -1.64014,-5.76276 -7.49525,-8.81532 -5.92518,-9.60035 1.57007,-0.78504 5.92518,2.53503 8.28029,5.67518 2.3551,3.14014 4.14014,5.47773 4.53266,8.61787 0.39251,3.14014 0.57007,7.08284 1.3551,9.83046 0.78504,2.74763 -1.96259,4.71022 1.17756,7.45784 3.14014,2.74763 6.28028,8.24288 6.6728,1.17756 0.39252,-7.06533 0.78503,-7.85036 0.39252,-12.16806 -0.39252,-4.31769 -2.35511,-3.14014 -1.96259,-8.24287 0.39252,-5.10273 1.17755,-6.6728 1.17755,-6.6728 0,0 2.35511,-3.92518 5.88777,-2.74763 3.53266,1.17755 3.92518,1.17755 5.49525,6.6728 1.57007,5.49525 3.92518,8.24288 3.14014,11.77554 -0.78504,3.53266 -3.92518,2.35511 -5.49525,8.24287 -1.57007,5.88777 -1.96259,5.49525 -1.17755,8.63539 0.78503,3.14015 -3.14015,8.6354 2.74762,6.67281 5.88777,-1.96259 3.92518,-3.53266 7.85036,-2.35511 3.92518,1.17755 12.16805,1.17755 16.09323,1.17755 3.92518,0 8.24287,-3.92517 7.85035,-1.17755 -0.39251,2.74763 -1.96258,1.96259 -2.3551,5.88777 -0.39252,3.92518 -1.57007,3.92518 0.39252,8.24287 1.96258,4.3177 2.3551,5.49525 4.31769,9.42043 1.96259,3.92518 0,0.78504 2.74763,5.49525 2.74762,4.71021 -14.13064,31.00891 -14.13064,31.00891 z"
       id="path11"
       sodipodi:nodetypes="ccssssssssssssssssssssssssssscsssssssssssssc" />
    <path
       style="fill:#b8860b;fill-opacity:1;stroke-width:10;stroke-dasharray:none"
       d="m 326.81749,327.78892 c 0,0 -4.71838,6.9388 -6.24492,10.13065 -1.52654,3.19185 -0.13878,0.69388 -1.94286,5.27349 -1.80409,4.57961 -1.66532,3.60818 -0.41633,5.82859 1.24898,2.22042 0.97143,3.33063 3.88573,2.22042 2.91429,-1.11021 1.66531,-0.27755 5.27348,-2.77552 3.60818,-2.49797 4.99594,1.80409 4.57961,-4.30206 -0.41633,-6.10614 -1.66531,-3.88573 -0.41633,-7.91023 1.24899,-4.02451 -1.24898,-4.85716 1.11021,-7.35513 2.35919,-2.49797 -2.08164,-1.38776 2.22042,-5.55104 4.30205,-4.16328 3.33062,-5.13471 4.0245,-6.80002 0.69388,-1.66532 -1.38776,-0.69388 -1.11021,-3.4694 0.27756,-2.77552 -2.35919,-2.08164 0.41633,-3.60818 2.77552,-1.52654 3.05307,-1.52654 4.16328,-3.60818 1.11021,-2.08164 3.74696,-6.52247 0.41633,-4.0245 -3.33062,2.49797 -4.57961,5.82859 -5.13471,3.19185 -0.55511,-2.63675 -0.27755,-2.35919 0,-4.44083 0.27755,-2.08164 0.27755,-2.08164 0.41633,-2.77552 0.13877,-0.69388 0.13877,-1.24899 0.5551,-3.33063 0.41633,-2.08164 0,-2.35919 0.69388,-4.30205 0.69388,-1.94287 0.5551,-1.52654 1.66531,-3.74696 1.11021,-2.22041 0.69388,-0.13877 0.69388,-3.60817 0,-3.4694 -1.52653,-2.08164 0.27755,-4.30206 1.80409,-2.22042 -0.83265,-1.52654 3.05308,-4.0245 3.88573,-2.49797 5.27349,-7.07758 5.41226,-8.04901 0.13878,-0.97143 -1.38776,-0.97143 -0.5551,-3.88573 0.83265,-2.9143 1.11021,-3.88573 0.27755,-4.99594 -0.83266,-1.1102 -1.11021,-1.94286 -0.5551,-3.60817 0.5551,-1.66531 0.13877,0 1.52653,-2.77552 1.38776,-2.77552 1.66531,-2.63675 1.11021,-5.27349 -0.5551,-2.63674 -0.97143,-2.9143 -1.52654,-3.74695 -0.5551,-0.83266 -1.94286,-3.19185 -3.33062,-0.27755 -1.38776,2.91429 -1.38776,5.96736 -1.38776,7.07757 0,1.11021 -0.69388,0.55511 -1.52654,2.35919 -0.83265,1.80409 -1.80409,3.19185 -0.13877,3.4694 1.66531,0.27756 4.71838,-2.35919 2.22041,0.83266 -2.49796,3.19185 -2.49796,2.77552 -3.60817,4.16328 -1.11021,1.38776 -1.52654,1.38776 -1.94287,2.77552 -0.41633,1.38776 -0.13877,1.66531 0.41633,3.4694 0.5551,1.80409 0.5551,2.22042 0.69388,2.9143 0.13878,0.69388 0.83266,0.27755 0.13878,1.94286 -0.69388,1.66531 -0.55511,1.52654 -1.66532,3.4694 -1.1102,1.94286 -1.52653,2.35919 -2.08164,3.74695 -0.5551,1.38776 -0.5551,1.94287 -1.24898,3.05308 -0.69388,1.1102 0.13878,0.5551 -1.11021,1.94286 -1.24898,1.38776 -1.24898,1.38776 -1.80409,2.22042 -0.5551,0.83265 -0.41632,0.13877 -0.97143,0.97143 -0.5551,0.83265 -0.97143,1.11021 -1.24898,1.66531 -0.27755,0.5551 -0.83266,1.38776 0.13877,2.49797 0.97144,1.11021 1.11021,0 1.38776,1.52653 0.27756,1.52654 1.11021,0.55511 0.27756,1.80409 -0.83266,1.24899 -0.83266,0.41633 -1.38776,1.94287 -0.55511,1.52653 -0.55511,1.52653 -0.83266,2.77552 -0.27755,1.24898 -0.83266,0.13877 -0.27755,1.52653 0.5551,1.38776 0.41633,2.08164 0.97143,2.49797 0.5551,0.41633 1.11021,-0.13878 0.5551,0.69388 -0.5551,0.83266 -1.24898,0.27755 -1.94286,0.83266 -0.69388,0.5551 -0.97143,-0.55511 -0.83266,0.97143 0.13878,1.52653 -0.69388,2.49797 1.94287,3.05307 2.63674,0.5551 0.41633,2.49797 0.13877,3.19185 -0.27755,0.69388 -0.41632,0.13877 -1.1102,2.35919 -0.69388,2.22042 -0.41633,0.83266 -0.97144,3.19185 -0.5551,2.35919 -0.5551,3.05307 -1.38776,4.57961 -0.83265,1.52653 -0.83265,1.52653 -1.38776,2.49796 -0.5551,0.97144 -1.1102,0.69388 -0.69388,2.3592 0.41633,1.66531 0.13878,1.52653 0.13878,1.52653 z"
       id="path12" />
    <path
       style="fill:#b8860b;fill-opacity:1;stroke-width:10;stroke-dasharray:none"
       d="m 238.13962,396.34427 c 0,0 -2.77552,2.77552 -3.33062,3.60817 -0.5551,0.83266 -1.24898,1.66532 -2.22042,2.9143 -0.97143,1.24898 -0.97143,1.11021 -2.08164,2.49797 -1.1102,1.38776 -1.66531,1.80409 -2.35919,2.35919 -0.69388,0.55511 -0.83265,0.69388 -2.08164,1.52654 -1.24898,0.83265 -1.52653,0.83265 -2.77552,2.08164 -1.24898,1.24898 -2.22041,1.94286 -2.91429,2.91429 -0.69388,0.97144 -1.94287,1.38776 -1.52654,2.22042 0.41633,0.83266 -1.11021,2.49797 1.80409,2.08164 2.91429,-0.41633 3.33062,-1.80409 4.30205,0 0.97144,1.80409 1.24899,4.30206 1.66532,4.99594 0.41632,0.69388 0,0.41632 1.52653,1.80408 1.52654,1.38776 2.35919,1.24899 4.02451,-0.13877 1.66531,-1.38776 1.24898,-0.83266 2.77552,-2.35919 1.52653,-1.52654 1.52653,-1.24899 1.24898,-3.33063 -0.27755,-2.08164 -2.08164,-1.52653 0,-3.74695 2.08164,-2.22042 0.97143,-1.38776 2.63674,-3.4694 1.66532,-2.08164 2.49797,-1.24898 1.11021,-3.60818 -1.38776,-2.35919 -1.80409,-1.94286 -1.94286,-3.74695 -0.13878,-1.80409 -0.41633,-2.77552 -0.27755,-4.44083 0.13877,-1.66531 0.41632,-4.16328 0.41632,-4.16328 z"
       id="path13" />
    <path
       style="fill:none;fill-opacity:1;stroke:#b8860b;stroke-width:10.833;stroke-dasharray:none;stroke-opacity:1"
       d="M 153.06993,334.24201 227.8702,304.197 271.02954,269.91933 c 0,0 9.85309,-5.96737 11.10208,-9.8531 1.24898,-3.88573 0.83265,-31.2246 2.63674,-31.36337 1.80409,-0.13878 16.7919,-8.60412 19.84497,-8.04901 3.05307,0.5551 13.73882,-0.97143 20.67762,-2.9143 6.9388,-1.94286 26.92255,-10.13065 26.92255,-10.13065 0,0 -6.10614,12.7674 0.69388,-1.52653 6.80002,-14.29393 11.93474,-21.78784 14.01638,-22.75927 2.08164,-0.97143 19.42864,-11.37963 20.53884,-12.90617 1.11021,-1.52653 -1.52653,4.71839 4.44084,-4.85716 5.96736,-9.57554 16.79189,-20.53885 18.17965,-21.09395 1.38776,-0.5551 11.93474,-12.48984 12.62862,-14.57148 0.69388,-2.08164 0.27755,-1.24898 9.02044,-6.3837 8.74289,-5.13471 20.95518,-12.90616 23.45314,-13.32249 2.49797,-0.41633 34.69401,-6.9388 36.63687,-6.9388 1.94286,0 10.82453,0.5551 12.35106,-0.41633 1.52654,-0.97143 0.97144,-1.94286 5.41227,3.05307 4.44083,4.99594 30.11439,9.57555 30.11439,9.57555 0,0 22.89804,9.71432 25.81234,10.4082 2.91429,0.69388 10.9633,2.35919 14.01637,4.5796 3.05308,2.22042 18.87354,11.37964 21.64906,11.79596 2.77552,0.41633 16.23679,0.27756 19.70619,1.80409 3.4694,1.52654 20.2613,10.96331 20.12252,13.18372 -0.13877,2.22042 18.31844,10.68576 18.31844,10.68576 0,0 9.57554,6.66124 13.46127,9.85309 3.88573,3.19185 17.48578,11.37963 19.15109,11.37963 1.66531,0 18.31843,7.21636 20.67762,6.24492 2.35919,-0.97143 9.71432,2.08164 9.71432,2.08164 0,0 13.3225,5.27349 16.2368,4.99594 2.91429,-0.27755 8.18778,4.57961 13.32249,7.77146 5.13471,3.19184 17.20823,3.33062 18.87354,4.85716 1.66531,1.52653 22.06538,14.57148 23.86947,14.57148 1.80409,0 18.31843,4.85716 19.84497,6.38369 1.52654,1.52654 17.347,6.52248 17.347,6.52248 9.22861,9.99187 3.74695,6.80002 9.57555,10.82452 13.30862,8.79692 10.75726,4.28297 13.30862,8.79692 2.55137,4.51396 -9.22417,-0.98129 4.71022,5.88777 14.3269,5.10273 14.3269,5.10273 14.3269,5.10273"
       id="path14" />
    <path
       style="fill:#b8860b;fill-opacity:1;stroke:#b8860b;stroke-width:5.4;stroke-dasharray:none;stroke-opacity:1"
       d="m 528.20877,249.96225 c -0.35356,-3.53554 -1.06066,-5.3033 -2.12132,-8.48528 -1.06066,-3.18198 -1.06066,-2.82843 -2.82843,-6.36396 -1.76777,-3.53554 -3.88909,-7.07107 -3.88909,-7.07107 0,0 -1.76777,-0.70711 -2.47487,0.7071 -0.70711,1.41422 -2.12132,0.70711 -2.12132,4.5962 0,3.88909 -1.06066,3.53553 1.41421,6.36396 2.47487,2.82843 3.53553,2.12132 4.5962,4.94975 1.06066,2.82842 1.06066,0.7071 1.41421,4.24264 0.35355,3.53553 -0.70711,0.7071 0.35355,3.88908 1.06066,3.18199 0.35356,3.53554 1.76777,5.65686 1.41421,2.12132 2.12132,-1.06066 3.53553,6.01041 1.41422,7.07106 1.41422,6.0104 2.47488,8.83883 1.06066,2.82843 0.7071,2.47488 0,5.65686 -0.70711,3.18198 -0.70711,3.53553 -1.41422,5.3033 -0.7071,1.76776 -1.76776,3.53553 -2.47487,5.3033 -0.70711,1.76776 -1.41421,4.59619 -1.41421,4.59619 0,0 1.41421,-1.41421 0,2.47488 -1.41422,3.88908 0,4.24264 -2.82843,6.71751 -2.82843,2.47487 -4.5962,3.88909 -6.36396,4.59619 -1.76777,0.70711 -2.12132,0.35356 -3.88909,2.47488 -1.76777,2.12132 -1.76777,1.41421 -3.88909,4.94974 -2.12132,3.53554 -4.59619,6.01041 -6.71751,6.71752 -2.12132,0.70711 -1.06066,-1.76777 -2.82843,1.41421 -1.76777,3.18198 -3.88909,4.5962 -1.76777,5.3033 2.12132,0.70711 -2.12132,3.88909 3.88909,0.35356 6.01041,-3.53554 6.01041,-1.76777 7.77818,-4.24264 1.76776,-2.47488 -0.70711,-3.18198 3.53553,-5.65686 4.24264,-2.47487 6.36396,-2.12132 8.48528,-3.18198 2.12132,-1.06066 2.12132,-0.35355 6.36396,-2.47487 4.24264,-2.12132 4.24264,0 4.94975,-2.82843 0.70711,-2.82843 -1.06066,-1.41421 1.41421,-6.71751 2.47488,-5.3033 0.70711,-2.82843 2.82843,-6.01041 2.12132,-3.18198 2.82843,-1.06066 2.47487,-6.01041 -0.35355,-4.94975 0,-8.48528 -1.76776,-12.37437 -1.76777,-3.88908 -2.82843,-2.12132 -3.18198,-7.42462 -0.35356,-5.3033 0,-2.82843 -0.35356,-6.71751 -0.35355,-3.88909 0.35356,-2.47488 -0.35355,-4.94975 -0.70711,-2.47487 -0.70711,-3.53553 -1.76777,-4.94975 -1.06066,-1.41421 -2.82842,-5.65685 -2.82842,-5.65685 z"
       id="path23" />
    <path
       style="fill:#b8860b;fill-opacity:1;stroke:#b8860b;stroke-width:3.4;stroke-dasharray:none;stroke-opacity:1"
       d="m 687.66135,309.71277 c 2.82842,0.35355 0,-3.53553 4.24264,0.35355 4.24264,3.88909 3.88908,3.18198 5.65685,6.36396 1.76777,3.18199 1.41421,4.24265 5.65685,6.01041 4.24265,1.76777 2.47488,3.53554 7.07107,3.53554 4.5962,0 1.41422,-0.70711 5.65686,0 4.24264,0.7071 3.18198,0 6.36396,2.47487 3.18198,2.47487 4.59619,0.35355 4.59619,3.88909 0,3.53553 -0.35355,3.53553 -0.35355,3.53553"
       id="path24" />
    <path
       style="fill:#b8860b;fill-opacity:1;stroke:#000000;stroke-width:0;stroke-dasharray:none;stroke-opacity:1"
       d="m 580,210.5 c 1.25,1.75 0.25,4 5,6 4.75,2 5.75,2.75 7.5,4.25 1.75,1.5 1.5,1.25 5,3.75 3.5,2.5 2.25,2.75 5.75,4.25 3.5,1.5 1.75,0 7.25,3.5 5.5,3.5 5,2.25 8.25,6 3.25,3.75 2,5.25 7,6 5,0.75 14.75,0.25 14.25,-2 -0.5,-2.25 -0.75,-0.5 -2,-4 -1.25,-3.5 -0.5,-2.25 -1.5,-4.25 -1,-2 0.75,-3.25 -3.25,-3.5 -4,-0.25 -4.25,0.5 -8.5,-0.75 -4.25,-1.25 -2.25,0.5 -8.25,-3 -6,-3.5 -5.5,-2.5 -9.75,-6 -4.25,-3.5 -3.75,-4.75 -7.25,-6.25 -3.5,-1.5 -5.5,-2.5 -9.25,-3.25 -3.75,-0.75 -3,-0.75 -6.25,-1 -3.25,-0.25 -4,0.25 -4,0.25 z"
       id="path25" />
    <path
       style="fill:#b8860b;fill-opacity:1;stroke:#b8860b;stroke-width:1.8;stroke-dasharray:none;stroke-opacity:1"
       d="m 637.10321,231.93102 c 1.76777,1.06066 8.83884,1.06066 12.02082,3.53554 3.18198,2.47487 2.12132,2.82843 5.65685,4.24264 3.53553,1.41421 2.82843,0.35355 6.01041,3.88909 3.18198,3.53553 2.12132,1.41421 6.36396,5.3033 4.24264,3.88908 1.76777,6.36396 7.42462,8.48528 5.65685,2.12132 6.71751,2.82843 10.6066,3.53553 3.88909,0.70711 -2.12132,3.88909 5.65686,0.70711 7.77817,-3.18198 7.07106,-3.88909 8.83883,-3.53553 1.76777,0.35355 9.19239,0.7071 3.53553,-2.82843 -5.65685,-3.53554 -7.07106,-4.24264 -9.89949,-3.53554 -2.82843,0.70711 -1.06066,1.06066 -4.59619,0.70711 -3.53554,-0.35355 -0.35356,2.12132 -5.65686,-0.70711 -5.3033,-2.82842 -4.59619,-1.76776 -7.42462,-4.24264 -2.82843,-2.47487 -2.12132,-3.18198 -4.59619,-4.59619 -2.47488,-1.41421 -2.47488,-2.12132 -5.3033,-3.18198 -2.82843,-1.06066 -4.5962,-1.41421 -7.42463,-2.12132 -2.82842,-0.70711 -3.53553,0.35355 -6.0104,-2.12132 -2.47488,-2.47488 0,-2.12132 -4.94975,-5.3033 -4.94975,-3.18198 -9.19239,-4.5962 -10.6066,-3.18198 -1.41422,1.41421 0.35355,4.94974 0.35355,4.94974 z"
       id="path26" />
    <path
       style="fill:#b8860b;fill-opacity:1;stroke:#b8860b;stroke-width:0.5;stroke-dasharray:none;stroke-opacity:1"
       d="m 671.75144,314.48574 c 0.35356,3.35876 0.17678,3.53554 0.70711,5.65686 0.53033,2.12132 -0.17678,0.53033 0.88388,3.0052 1.06066,2.47487 -1.59099,0.88388 2.65165,4.24264 4.24264,3.35876 2.2981,3.88909 5.65686,5.12652 3.35876,1.23744 0.88388,0.17678 4.77297,1.41422 3.88909,1.23743 3.18198,0.88388 6.18718,3.0052 3.00521,2.12132 2.47488,5.65686 3.18198,1.59099 0.70711,-4.06586 2.2981,-4.94975 -0.17677,-5.48008 -2.47488,-0.53033 -2.2981,0.53033 -3.71231,-0.88388 -1.41422,-1.41421 -1.94455,-1.59099 -4.06587,-3.35876 -2.12132,-1.76776 -3.0052,-1.59099 -5.12652,-4.24264 -2.12132,-2.65165 -2.82843,-3.35875 -4.5962,-5.83363 -1.76776,-2.47487 -2.29809,-3.53553 -3.71231,-4.41942 -1.41421,-0.88388 -2.65165,0.17678 -2.65165,0.17678 z"
       id="path27" />
    <path
       style="fill:#b8860b;fill-opacity:1;stroke:#b8860b;stroke-width:1.8;stroke-dasharray:none;stroke-opacity:1"
       d="m 580,314.5 c 0,4 -2.5,6.5 -0.5,9 2,2.5 -4,2.5 4.5,2.5 8.5,0 7,-0.5 14,-0.5 7,0 5.5,3 13,5.5 7.5,2.5 3,3 10.5,2.5 7.5,-0.5 14,-0.5 14.5,-3.5 0.5,-3 5,-3 -0.5,-4 -5.5,-1 -4,-0.5 -10,-1 -6,-0.5 -8.5,1 -11.5,-0.5 -3,-1.5 -0.5,-0.5 -6.5,-2.5 -6,-2 -7,-3 -12.5,-3.5 -5.5,-0.5 -10,-1.5 -10,-1.5 z"
       id="path28" />
    <path
       style="fill:#b8860b;fill-opacity:1;stroke:#b8860b;stroke-width:1;stroke-dasharray:none;stroke-opacity:1"
       d="m 751.65451,337.46671 c 0,0 -1.41421,0.70711 1.41421,1.94455 2.82843,1.23743 0,1.23743 4.24264,1.41421 4.24264,0.17678 2.47488,-1.06066 5.3033,0.53033 2.82843,1.59099 -0.35355,-0.35355 4.41942,2.12132 4.77297,2.47487 5.3033,4.06586 7.6014,3.53553 2.2981,-0.53033 3.0052,1.76777 2.65165,-1.23743 -0.35355,-3.00521 1.06066,-2.2981 -0.53033,-3.35876 -1.59099,-1.06066 -2.2981,0 -4.59619,-2.12132 -2.2981,-2.12132 -1.76777,-2.47487 -4.06587,-4.24264 -2.29809,-1.76777 -0.35355,-2.65165 -4.24264,-2.12132 -3.88909,0.53033 -3.0052,-0.35356 -6.36396,1.23743 -3.35876,1.591 -5.83363,2.2981 -5.83363,2.2981 z"
       id="path29" />
    <path
       style="fill:#b8860b;fill-opacity:1;stroke:#b8860b;stroke-width:1.8;stroke-dasharray:none;stroke-opacity:1"
       d="m 596,368.25 c 0,0 5.25,3.25 8,4.25 2.75,1 -0.75,1.25 5.75,1.75 6.5,0.5 4.5,0 9.75,1.5 5.25,1.5 3.75,0.5 7.5,2 3.75,1.5 4,2.75 6.5,3.5 2.5,0.75 -0.25,-1 5.5,1 5.75,2 3.75,0 7.75,3.25 4,3.25 0.75,0.75 5.75,4 5,3.25 2.25,3.5 6.75,3.5 4.5,0 7.75,-0.5 8.25,-4 0.5,-3.5 0.5,-2 -0.75,-5.25 C 665.5,380.5 666,381 665,378 c -1,-3 -1.25,-2.25 -3.25,-5.75 -2,-3.5 -3.25,-3 -2.5,-5.25 0.75,-2.25 0.5,-5.75 5.5,-4.75 5,1 3.5,8 7.75,4.75 4.25,-3.25 5,-2 5.75,-4.25 0.75,-2.25 0,-2.25 -2.25,-3.75 -2.25,-1.5 0.5,-1.75 -4.75,-3.25 -5.25,-1.5 -5.5,-2.25 -7,-2 -1.5,0.25 2,-5 -4.25,0.5 -6.25,5.5 -7.75,5.25 -8.25,7.5 -0.5,2.25 0.25,3.5 -0.5,5 -0.75,1.5 -0.25,2 -1.75,3.5 -1.5,1.5 -0.75,1.5 -4,3.5 -3.25,2 -3,2 -4.75,3.5 -1.75,1.5 -1.25,3 -3.75,2 -2.5,-1 -9.75,3.5 -2.25,-3.25 7.5,-6.75 5.25,-5 8.75,-7.25 3.5,-2.25 4,0.5 4.25,-2.75 0.25,-3.25 -1.75,-1.5 0,-4.75 1.75,-3.25 2,-2.75 3,-5 1,-2.25 2,-1 1,-3 -1,-2 0.75,-2.25 -2.5,-2.25 -3.25,0 -0.25,-2.75 -5,0.5 -4.75,3.25 -2.5,2 -8.25,5 -5.75,3 -5.5,4 -9,4.5 -3.5,0.5 2,0.5 -6.25,1.25 -8.25,0.75 -7,1 -10.75,1.25 -3.75,0.25 -2.75,0 -5,0.25 -2.25,0.25 -2,-0.25 -4.75,0.75 -2.75,1 -7.25,3.75 -7.25,3.75 z"
       id="path30" />
    <path
       style="fill:#b8860b;fill-opacity:1;stroke:#b8860b;stroke-width:1.8;stroke-dasharray:none;stroke-opacity:1"
       d="m 835.375,338.25 c 0,0 7.65712,1.44079 5.75,-0.875 -1.75,-2.125 -13.125,-0.625 -16.625,-1.625 -3.5,-1 -4.5,-1.75 -8.5,-3 -4,-1.25 -4,-1 -8.5,-2.25 -4.5,-1.25 -9.25,-2 -13,-3.75 -3.75,-1.75 -3.5,-2 -7.75,-4.5 -4.25,-2.5 -4.75,-2.5 -9,-4.75 -4.25,-2.25 -5.25,-2.25 -8,-5 -2.75,-2.75 -1.5,-2 -6.75,-4 -5.25,-2 -4.5,-1 -9.25,-3 -4.75,-2 -2.5,0.25 -7.5,-2.5 -5,-2.75 -8.25,-4.75 -11.5,-5.25 -3.25,-0.5 -3.75,-0.25 -5.25,-0.5 -1.5,-0.25 -1.5,-0.25 -3.25,-1.5 -1.75,-1.25 -4.25,-4.5 -3,-4.75 1.25,-0.25 0.25,-1.75 5.5,-0.25 5.25,1.5 7.75,3.25 11.75,4 4,0.75 2.5,1.25 8.5,2.25 6,1 4,-0.75 8.75,2.75 4.75,3.5 4.5,4.5 8.75,6.5 4.25,2 3.5,2.75 7.5,4 4,1.25 1.25,0.25 6.5,2.25 5.25,2 3.5,0.75 6.25,2.5 2.75,1.75 1.75,1.75 6,2.5 4.25,0.75 2.75,0 6.25,1.25 3.5,1.25 -0.25,-0.75 5.25,2.25 5.5,3 5.5,2.25 10,5.25 4.5,3 3,3.5 7.25,5 4.25,1.5 3.5,0.5 8.25,2.5 4.75,2 5.625,4.5 5.625,4.5 z"
       id="path31"
       sodipodi:nodetypes="csssssssssssssssssssssssssssssc" />
    <path
       style="fill:#b8860b;fill-opacity:1;stroke:#b8860b;stroke-width:1.8;stroke-dasharray:none;stroke-opacity:1"
       d="m 618.25,153.25 c 0.25,3.75 -0.1875,3.625 0.3125,6.375 0.5,2.75 0.4375,3.625 2.4375,7.375 2,3.75 1.75,2.5 4.25,7.25 2.5,4.75 3,4 4.5,8.75 1.5,4.75 1.5,1.5 2,6.25 0.5,4.75 0,3 0.75,7.5 0.75,4.5 1,3.75 2,7 1,3.25 1.5,-0.75 1.25,4.75 -0.25,5.5 -0.5,4.5 -0.25,9.25 0.25,4.75 0.75,5.75 1.25,8.75 0.5,3 1.25,4.75 3,1.25 1.75,-3.5 2.25,2.25 1.75,-4.75 -0.5,-7 -0.5,-2.25 -0.5,-9 0,-6.75 1.75,-5 -0.75,-11.25 -2.5,-6.25 -3,-5.25 -3.5,-9.5 -0.5,-4.25 1.5,-1.25 -1.25,-6 -2.75,-4.75 -3.25,-4.75 -4.25,-8.5 -1,-3.75 0.75,-3 -2.5,-7.25 -3.25,-4.25 -4,-3.25 -5.5,-6.5 -1.5,-3.25 -0.33412,-2.56815 -0.6875,-3.9375 -0.5,-1.9375 0.1875,-2.8125 0.1875,-2.8125 0,0 0.6875,-1.125 -0.8125,-3.375 -1.5,-2.25 -1.375,-5.875 -3.0625,-6.25 -1.63712,-0.3638 -0.625,4.625 -0.625,4.625 z"
       id="path32"
       sodipodi:nodetypes="csssssssssssssssssssscssc" />
    <path
       style="fill:#b8860b;fill-opacity:1;stroke:#b8860b;stroke-width:1.8;stroke-dasharray:none;stroke-opacity:1"
       d="m 729.91098,204.7958 c -0.70711,2.82843 -0.17678,3.44715 0.7071,6.98268 0.88389,3.53554 0,1.76777 1.59099,5.48008 1.59099,3.71231 0.70711,2.47487 2.47488,6.18718 1.76776,3.71231 2.65165,4.06587 3.18198,7.24785 0.53033,3.18198 0,3.35876 0.35355,4.94975 0.35355,1.59099 -4.24264,3.53553 1.94454,2.29809 6.18719,-1.23743 3.35876,-0.53033 7.95496,1.06066 4.59619,1.59099 4.59619,1.41422 5.83363,3.71231 1.23743,2.2981 0.35355,3.35876 2.65165,4.24264 2.29809,0.88389 2.82842,3.53554 3.71231,1.41422 0.88388,-2.12132 0.53033,-0.88389 0.88388,-2.82843 0.35355,-1.94454 0.88388,-2.12132 -0.17678,-3.35876 -1.06066,-1.23743 -0.7071,-0.17677 -2.29809,-2.29809 -1.59099,-2.12132 -0.88389,-1.76777 -2.47488,-2.47488 -1.59099,-0.7071 -2.29809,-1.23743 -3.71231,-2.47487 -1.41421,-1.23744 -0.17677,-1.76777 -3.0052,-1.59099 -2.82843,0.17677 -2.82843,2.38649 -5.48007,0.97227 -2.65166,-1.41422 1.41345,0.61915 -2.47488,-3.62392 -4.30125,-4.69367 -0.17678,-3.53554 -0.88389,-7.42462 -0.7071,-3.88909 -0.17677,-2.2981 -1.59099,-5.12653 -1.41421,-2.82842 -0.7071,-1.76776 -2.29809,-3.88908 -1.59099,-2.12133 -1.23744,-0.17678 -2.2981,-3.18199 -1.06066,-3.0052 -1.94454,-5.3033 -1.94454,-5.3033 z"
       id="path33"
       sodipodi:nodetypes="csssssssssssssssssssssscc" />
    <path
       style="fill:#b8860b;fill-opacity:1;stroke:#b8860b;stroke-width:1.8;stroke-dasharray:none;stroke-opacity:1"
       d="m 665.125,239.125 c -0.375,-1.25 0.625,1 -1.125,-2.125 -1.75,-3.125 -1.375,-1.75 -2.25,-4.25 -0.875,-2.5 -0.375,-1.875 -1.875,-4.5 -1.5,-2.625 -1.75,-2.5 -2.625,-4.625 -0.875,-2.125 -1.375,-3.375 -1.625,-5.375 -0.25,-2 -0.875,-2 -1.25,-3.875 -0.375,-1.875 -1,-2.875 0,-4.125 1,-1.25 -0.125,-4.375 1.75,-1.5 1.875,2.875 1.5,1.625 2,4.375 0.5,2.75 0.125,3.375 0.75,6.125 0.625,2.75 0.625,1.75 1.375,4.125 0.75,2.375 1,2.375 2,4.375 1,2 0.375,0.625 2.125,3.25 1.75,2.625 1.75,3 2.75,5.875 1,2.875 1.75,3.375 1.25,4.375 -0.5,1 -3.25,-2 -3.25,-2.125 z"
       id="path34" />
    <path
       style="fill:#b8860b;fill-opacity:1;stroke:#b8860b;stroke-width:1.8;stroke-dasharray:none;stroke-opacity:1"
       d="m 255.6191,287.79246 c 0.88389,5.3033 -4.24264,0.17678 2.12132,7.24784 6.36396,7.07107 3.53554,3.00521 6.89429,7.77818 3.35876,4.77297 -0.53033,6.89429 4.94975,6.18718 5.48008,-0.7071 4.24264,-4.94974 5.65686,-0.53033 1.41421,4.41942 3.0052,-0.53033 1.23743,7.6014 -1.76777,8.13173 -1.06066,6.71752 -1.94454,8.66206 -0.88389,1.94454 -0.17678,-0.35355 -1.23744,3.0052 -1.06066,3.35876 -0.35355,1.41422 -1.41421,4.24264 -1.06066,2.82843 -0.88389,1.23744 -1.23744,4.24265 -0.35355,3.0052 -0.35355,1.06066 -0.53033,4.41941 -0.17678,3.35876 -0.17678,1.94455 -0.17678,4.77297 0,2.82843 0.17678,2.47488 -0.17677,4.77297 -0.35356,2.2981 0.35355,1.06066 -0.53033,4.24264 -0.88389,3.18199 -0.88389,3.00521 -1.23744,4.77298 -0.35355,1.76776 -0.35355,2.47487 -0.70711,3.71231 -0.35355,1.23743 -0.53033,1.94454 -1.06066,3.71231 -0.53033,1.76776 -0.53033,2.65165 -0.53033,4.41941 0,1.76777 0,1.94455 0.53033,3.53554 0.53033,1.59099 -0.7071,2.2981 1.23744,2.65165 1.94454,0.35355 4.77297,-0.17678 5.48008,-7.07107 0.7071,-6.89429 -0.70711,-7.95495 -0.35356,-12.19759 0.35356,-4.24264 -1.41421,-3.00521 0.70711,-6.71752 2.12132,-3.71231 1.23744,-1.94454 3.00521,-4.94974 1.76776,-3.00521 1.59099,-3.35876 2.12132,-6.01041 0.53033,-2.65165 1.23743,-0.70711 0.35355,-3.35876 -0.88388,-2.65165 -1.94454,-1.06066 -1.41421,-4.94975 0.53033,-3.88908 0.17677,-2.82842 0.88388,-5.65685 0.70711,-2.82843 0.17678,-2.12132 1.06066,-5.3033 0.88388,-3.18198 -0.70711,-3.0052 1.06066,-6.36396 1.76777,-3.35876 1.41421,-2.82843 2.65165,-5.65686 1.23744,-2.82842 1.23744,-2.29809 0.88388,-4.94974 -0.35355,-2.65165 -1.06066,-2.2981 -1.06066,-7.24785 0,-4.94975 -0.35355,-3.71231 0.17678,-6.71751 0.53033,-3.00521 0.35355,0 0.70711,-5.12653 0.35355,-5.12652 -0.17678,1.06066 0.35355,-8.66205 0.53033,-9.72272 1.41421,-11.84404 0.53033,-12.1976 -0.88388,-0.35355 -28.99138,23.68808 -28.99138,23.68808 z"
       id="path35" />
  </g>
</svg>
